<svg enable-background="new 0 0 1024 1024" viewBox="0 0 1024 1024" xmlns="http://www.w3.org/2000/svg"><g fill="#fdb71d"><path d="m478.6 819.2-.9-.9c-96.7-89.6-147.8-195.5-147.8-306.4 0-125.2 58.9-243.7 161.7-325.1l31.4-24.9-99.2-62.6-15.1 9.2c-54.3 33.2-231.4 160.6-231.4 403.3 0 105.8 39.8 261.2 229.4 400.3l16.9 12.4 90.9-67.4-22.1-23.1c-4.5-4.8-8.9-9.5-13.8-14.8"/><path d="m802 819.2-.9-.9c-96.7-89.6-147.8-195.5-147.8-306.4 0-125.2 58.9-243.7 161.7-325.1l31.4-24.9-99.2-62.6-15.1 9.2c-54.3 33.2-231.4 160.6-231.4 403.3 0 105.8 39.8 261.2 229.4 400.3l16.9 12.4 90.9-67.4-22.1-23.1c-4.5-4.8-8.9-9.5-13.8-14.8"/></g></svg>