<?xml version="1.0" encoding="utf-8"?>
<!-- Generator: Adobe Illustrator 23.0.4, SVG Export Plug-In . SVG Version: 6.00 Build 0)  -->
<svg version="1.1" id="Layer_1" xmlns="http://www.w3.org/2000/svg" xmlns:xlink="http://www.w3.org/1999/xlink" x="0px" y="0px"
	 viewBox="0 0 1600 460" style="enable-background:new 0 0 1600 460;" xml:space="preserve">
<style type="text/css">
	.st0{fill:#FFFFFF;}
</style>
<title>SMACK_Logo_RGB_QB White</title>
<path class="st0" d="M455.8,286.3c-35.6,0-58.9-7.8-92.9-26.7l14-31.4c32.3,15.4,55.3,24.4,74.9,24.4c24.4,0,59.8-7.3,59.8-29.2
	c0-17.7-28.3-21.9-62.6-25.2c-41.2-4.2-88.9-10.7-88.9-56.1c0-49.4,60.3-60.3,97.3-60.3c33.4,0,63.4,8.1,92.3,25l-12.9,28.6
	c-25-13.2-54.1-20.2-79.4-20.2c-40.1,0-53.6,13.5-53.6,25.2c0,19.9,43.5,20.5,57.8,21.9c39.8,3.4,94.5,10.1,94.5,61.2
	C556.3,273.4,495.4,286.3,455.8,286.3z"/>
<path class="st0" d="M845.2,283.5h-40.1l-13.2-115.9l-0.6-0.6l-75.8,113.1h-13.5L630.6,168l-0.6,0.8l-12.6,114.7h-40.1l17.4-196.7
	h26.1l89.8,135h0.6l90.6-135h24.4L845.2,283.5z"/>
<path class="st0" d="M1040.7,283.5l-20.5-44l-97.4,0.3l-20.8,43.8h-43.2l96.8-197.2h37l92.6,197.2L1040.7,283.5z M972.2,134.3h-0.3
	l-34.8,73.5h69L972.2,134.3z"/>
<path class="st0" d="M1076.7,184.5c0-64,60-103.5,115-103.5c43.8,0,75.8,16,98.5,34.5l-19.6,29.5c-19.1-14.9-42.7-29.2-77.2-29.2
	c-36.8,0-71.8,26.4-71.8,69.6c0,42.1,35.1,69.3,71.6,69.3c34.5,0,59.2-14.6,78.8-29.7l22.2,25.5c-12.9,14.9-49.4,38.2-101.3,38.2
	C1142.1,288.6,1076.7,253,1076.7,184.5z"/>
<path class="st0" d="M1449.8,283.5l-68.2-87.5l-24.6,22.5v65.1h-45.4V86.9h45.4v85.3l92-85.3h48.2l-86.4,81.1l91.2,115.5H1449.8z"/>
<path class="st0" d="M192.8,290.2l-0.3-0.3c-30.4-28.2-46.5-61.6-46.5-96.5c0-39.4,18.6-76.7,50.9-102.3l9.9-7.8l-31.2-19.7
	l-4.8,2.9C153.8,76.9,98,117,98,193.4c0,33.3,12.5,82.2,72.2,126l5.3,3.9l28.6-21.2l-7-7.3C195.7,293.3,194.4,291.8,192.8,290.2z"/>
<path class="st0" d="M294.6,290.2l-0.3-0.3c-30.4-28.2-46.5-61.5-46.5-96.5c0-39.4,18.5-76.7,50.9-102.3l9.9-7.8l-31.2-19.7
	l-4.7,2.9c-17.1,10.5-72.8,50.6-72.8,127c0,33.3,12.5,82.2,72.2,126l5.3,3.9l28.6-21.2l-7-7.3C297.5,293.3,296.2,291.8,294.6,290.2z
	"/>
<path class="st0" d="M671.9,325H690c2.9,0,5.9,0.3,8.7,1c2.4,0.6,4.7,1.6,6.7,3c1.8,1.3,3.3,3.1,4.3,5.1c1.1,2.3,1.6,4.9,1.5,7.5
	c0.1,2.6-0.5,5.3-1.6,7.6c-1,2.1-2.6,3.9-4.5,5.2c-2.1,1.4-4.4,2.4-6.9,3c-2.8,0.7-5.7,1-8.6,1h-9.4v26.1h-8.3L671.9,325z
	 M680.2,351.2h8.8c1.9,0,3.7-0.2,5.6-0.5c1.6-0.3,3.1-0.9,4.4-1.7c1.2-0.7,2.2-1.8,2.8-3c0.7-1.4,1.1-3,1-4.5c0.1-1.6-0.3-3.1-1-4.5
	c-0.7-1.2-1.7-2.2-2.8-2.9c-1.3-0.8-2.8-1.3-4.3-1.6c-1.8-0.3-3.6-0.5-5.5-0.5h-9V351.2z"/>
<path class="st0" d="M752.8,364.4c0,2.9-0.5,5.8-1.6,8.5c-1,2.5-2.6,4.8-4.5,6.7c-2,1.9-4.3,3.4-6.8,4.4c-5.5,2.1-11.5,2.1-16.9,0
	c-2.5-1-4.8-2.5-6.8-4.4c-1.9-1.9-3.4-4.2-4.5-6.7c-1.1-2.7-1.7-5.6-1.6-8.5c0-2.9,0.5-5.8,1.6-8.4c2.1-5,6.2-9,11.3-10.9
	c5.5-2.1,11.5-2.1,16.9,0c2.5,1,4.9,2.4,6.8,4.3c1.9,1.9,3.5,4.1,4.5,6.6C752.3,358.6,752.8,361.5,752.8,364.4z M744.6,364.4
	c0-1.8-0.3-3.7-0.9-5.4c-0.6-1.7-1.4-3.2-2.6-4.6c-1.1-1.3-2.5-2.4-4.1-3.1c-3.6-1.6-7.7-1.6-11.3,0c-1.6,0.7-3,1.8-4.2,3.1
	c-1.1,1.3-2,2.9-2.6,4.6c-1.2,3.5-1.2,7.3,0,10.9c0.6,1.7,1.4,3.2,2.6,4.6c1.1,1.4,2.6,2.4,4.2,3.2c3.6,1.6,7.7,1.6,11.3,0
	c1.6-0.7,3-1.8,4.2-3.2c1.1-1.4,2-2.9,2.6-4.6C744.3,368.1,744.6,366.3,744.6,364.4L744.6,364.4z"/>
<path class="st0" d="M763.3,344.6l9,30.3h0.2l9.5-30.3h8.3l9.6,30.3h0.2l9-30.3h8.3l-13.2,39.7h-8.2l-9.8-29.8h-0.2l-9.7,29.8H768
	l-13.3-39.7H763.3z"/>
<path class="st0" d="M858.9,364.1v1.3c0,0.4,0,0.9-0.1,1.3h-31.6c0.1,1.6,0.4,3.2,1.1,4.7c0.7,1.4,1.6,2.8,2.8,3.8
	c4.4,3.9,10.8,4.6,15.9,1.7c1.8-1.1,3.4-2.5,4.6-4.3l5.5,4.5c-1.9,2.7-4.5,4.8-7.5,6.2c-5.7,2.5-12.2,2.7-18,0.5
	c-5-1.9-9-5.8-11-10.8c-1.1-2.7-1.6-5.6-1.6-8.5c0-2.9,0.5-5.8,1.5-8.5c1.9-5,5.9-9,10.9-11c5.2-2,10.9-2.1,16.1-0.1
	c2.3,0.9,4.3,2.3,6,4.1c1.7,1.9,3,4.1,3.8,6.5C858.4,358.3,858.9,361.2,858.9,364.1z M850.9,360.9c0-1.5-0.3-3-0.8-4.4
	c-0.4-1.3-1.2-2.5-2.1-3.5c-1-1-2.1-1.9-3.4-2.4c-1.5-0.6-3.2-0.9-4.8-0.9c-1.6,0-3.2,0.3-4.7,0.9c-1.4,0.5-2.7,1.4-3.9,2.4
	c-1.1,1-2,2.2-2.7,3.6c-0.7,1.4-1.1,2.9-1.2,4.4L850.9,360.9z"/>
<path class="st0" d="M866.4,349c0-1.7-0.1-3.2-0.2-4.4h7.5c0.1,1,0.2,2.2,0.2,3.5s0.1,2.4,0.1,3.2h0.2c1.1-2.3,2.8-4.3,4.9-5.7
	c2.1-1.4,4.7-2.2,7.2-2.1c1,0,2.1,0.1,3.1,0.3l-0.3,7.3c-1.2-0.3-2.4-0.4-3.6-0.4c-1.7-0.1-3.4,0.3-5,1c-1.4,0.7-2.5,1.6-3.5,2.8
	c-0.9,1.2-1.6,2.6-2,4.1c-0.5,1.6-0.7,3.2-0.7,4.8v20.9h-7.9v-31.1C866.5,352.1,866.4,350.7,866.4,349z"/>
<path class="st0" d="M929.1,364.1v1.3c0,0.4,0,0.9-0.1,1.3h-31.6c0,1.6,0.4,3.2,1.1,4.7c0.7,1.5,1.6,2.8,2.8,3.8
	c2.5,2.2,5.7,3.5,9,3.5c2.5,0.1,4.9-0.5,7-1.8c1.8-1.1,3.4-2.5,4.6-4.3l5.5,4.5c-1.9,2.7-4.5,4.8-7.5,6.2c-5.7,2.5-12.2,2.7-18,0.5
	c-2.5-0.9-4.7-2.4-6.6-4.2c-1.9-1.9-3.4-4.1-4.4-6.6c-1.1-2.7-1.6-5.6-1.6-8.5c0-2.9,0.5-5.8,1.6-8.5c1.9-5,5.9-9,10.9-11
	c5.2-2,10.9-2.1,16.1-0.1c2.3,0.9,4.4,2.3,6.1,4.1c1.7,1.9,3,4.1,3.8,6.5C928.7,358.3,929.2,361.2,929.1,364.1z M921.1,360.9
	c0-1.5-0.3-3-0.8-4.4c-0.4-1.3-1.2-2.5-2.1-3.6c-1-1-2.1-1.9-3.4-2.4c-1.5-0.6-3.2-0.9-4.8-0.9c-1.6,0-3.2,0.3-4.7,0.9
	c-1.4,0.5-2.7,1.4-3.9,2.4c-1.1,1-2,2.2-2.7,3.6c-0.7,1.4-1.1,2.9-1.2,4.4H921.1z"/>
<path class="st0" d="M968.3,378c-1.5,2.4-3.6,4.3-6.2,5.5c-2.5,1.2-5.3,1.9-8.2,1.9c-2.8,0-5.7-0.5-8.3-1.6c-2.4-1-4.5-2.6-6.3-4.5
	c-1.8-2-3.1-4.2-4-6.7c-1-2.6-1.4-5.4-1.4-8.2c0-2.8,0.5-5.6,1.4-8.2c0.9-2.5,2.3-4.7,4.1-6.7c1.8-1.9,3.9-3.4,6.3-4.4
	c2.6-1.1,5.3-1.6,8.1-1.6c3-0.1,5.9,0.6,8.5,2.1c2.2,1.2,4.2,2.9,5.7,5h0.2V321h7.9v63.4h-7.6v-6.3L968.3,378z M942.2,364.4
	c0,1.8,0.3,3.6,0.8,5.3c0.5,1.7,1.4,3.2,2.5,4.6c1.1,1.4,2.5,2.4,4.1,3.2c3.6,1.6,7.6,1.6,11.2,0c1.6-0.7,3-1.8,4.2-3.1
	c1.2-1.3,2.1-2.9,2.7-4.6c1.3-3.5,1.3-7.4,0-10.9c-0.6-1.7-1.5-3.2-2.7-4.6c-1.2-1.3-2.6-2.4-4.2-3.2c-1.7-0.8-3.6-1.2-5.5-1.2
	c-2,0-3.9,0.4-5.7,1.2c-1.6,0.7-3,1.8-4.1,3.2c-1.1,1.4-2,2.9-2.5,4.6C942.4,360.8,942.2,362.6,942.2,364.4L942.2,364.4z"/>
<path class="st0" d="M1011.9,378v6.3h-7.6V321h7.9v29.6h0.2c1.5-2.1,3.4-3.8,5.6-5c2.6-1.4,5.6-2.1,8.5-2.1c2.8,0,5.5,0.5,8.1,1.6
	c2.4,1,4.5,2.5,6.3,4.4c1.8,1.9,3.1,4.2,4,6.7c1,2.6,1.4,5.4,1.4,8.2c0,2.8-0.5,5.6-1.4,8.2c-0.9,2.5-2.2,4.7-4,6.7
	c-1.8,1.9-3.9,3.4-6.3,4.5c-2.6,1.1-5.4,1.7-8.3,1.6c-2.8,0-5.6-0.6-8.1-1.9c-2.5-1.2-4.7-3.1-6.2-5.5L1011.9,378z M1038.3,364.4
	c0-1.8-0.3-3.6-0.8-5.3c-0.5-1.7-1.4-3.2-2.5-4.6c-1.1-1.3-2.6-2.4-4.2-3.2c-1.8-0.8-3.8-1.2-5.8-1.2c-1.9,0-3.8,0.4-5.5,1.2
	c-1.6,0.8-3.1,1.8-4.2,3.2c-1.2,1.4-2.1,2.9-2.7,4.6c-1.3,3.5-1.3,7.4,0,10.9c0.6,1.7,1.5,3.2,2.7,4.6c1.2,1.3,2.6,2.4,4.2,3.1
	c1.7,0.8,3.6,1.2,5.5,1.2c2,0,4-0.4,5.8-1.2c1.6-0.8,3-1.9,4.2-3.2c1.1-1.4,2-2.9,2.5-4.6C1038,368,1038.3,366.2,1038.3,364.4
	L1038.3,364.4z"/>
<path class="st0" d="M1069.2,375.8h0.2l11-31.2h8.4l-19.3,49.1c-0.6,1.5-1.3,3-2.2,4.5c-0.7,1.3-1.7,2.4-2.8,3.4
	c-1.1,0.9-2.4,1.7-3.7,2.1c-1.6,0.5-3.3,0.8-5.1,0.8c-0.8,0-1.7,0-2.6-0.1c-0.9-0.1-1.8-0.2-2.6-0.5l0.8-7c1.3,0.4,2.6,0.7,3.9,0.7
	c1.7,0.1,3.4-0.5,4.6-1.7c1.2-1.5,2.1-3.1,2.8-4.9l2.5-6.6l-17-39.7h8.8L1069.2,375.8z"/>
<path class="st0" d="M1173.7,384.3h-34.9c-4.2,0-8.5-0.7-12.4-2.2c-3.6-1.4-7-3.4-9.8-6.1c-2.8-2.7-5-6-6.4-9.6
	c-1.6-4-2.3-8.3-2.2-12.6c0-4.2,0.8-8.4,2.3-12.3c1.5-3.6,3.7-6.9,6.5-9.6c2.8-2.7,6.1-4.9,9.8-6.3c3.9-1.5,8.1-2.3,12.4-2.3
	c4.2,0,8.3,0.7,12.2,2.3c3.6,1.4,6.9,3.6,9.7,6.3c2.8,2.7,4.9,6,6.4,9.6c1.6,3.9,2.3,8.1,2.3,12.3c0.1,4.9-1,9.7-3.3,13.9
	c-2.1,3.8-5.2,7.1-8.9,9.4v0.2h16.3L1173.7,384.3z M1117,353.9c0,3.1,0.5,6.2,1.6,9.1c1,2.7,2.5,5.2,4.4,7.3
	c1.9,2.1,4.3,3.8,6.9,4.9c5.8,2.4,12.2,2.4,18,0c2.6-1.1,5-2.8,6.9-4.9c1.9-2.1,3.5-4.6,4.4-7.3c1.1-2.9,1.6-6,1.6-9.1
	c0-3.1-0.5-6.1-1.5-9c-1-2.7-2.4-5.2-4.4-7.3c-1.9-2.1-4.3-3.8-6.9-5c-8.5-3.9-18.6-1.9-25,5c-1.9,2.1-3.5,4.6-4.4,7.3
	C1117.5,347.8,1117,350.8,1117,353.9z"/>
<path class="st0" d="M1206.2,384.3c-0.1-1-0.2-2.1-0.2-3.4s-0.1-2.3-0.1-3.2h-0.2c-1.1,2.3-2.9,4.1-5.1,5.4
	c-2.4,1.5-5.1,2.3-7.9,2.2c-2.3,0.1-4.6-0.4-6.7-1.3c-1.8-0.8-3.4-2-4.6-3.5c-1.2-1.5-2.1-3.3-2.7-5.2c-0.6-2-0.9-4.2-0.9-6.3v-24.6
	h7.9v22c0,1.6,0.1,3.1,0.4,4.7c0.2,1.4,0.7,2.7,1.4,3.9c0.7,1.1,1.6,2,2.8,2.7c1.4,0.7,3,1.1,4.5,1c3,0.1,5.8-1.2,7.7-3.6
	c1.9-2.4,2.9-5.6,2.9-9.5v-21.2h7.9v31.2c0,1.1,0,2.4,0.1,4.1s0.1,3.2,0.3,4.4L1206.2,384.3z"/>
<path class="st0" d="M1232.8,330.3c0,1.4-0.5,2.7-1.5,3.6c-1,0.9-2.3,1.5-3.7,1.4c-1.4,0-2.7-0.5-3.7-1.5c-1-0.9-1.5-2.2-1.5-3.6
	c0-1.4,0.5-2.7,1.5-3.7c1-1,2.3-1.5,3.7-1.5c1.4,0,2.7,0.5,3.7,1.5C1232.3,327.6,1232.8,328.9,1232.8,330.3z M1231.6,384.3h-7.9
	v-39.7h7.9V384.3z"/>
<path class="st0" d="M1269.8,354.7c-1-1.4-2.3-2.5-3.8-3.2c-1.7-0.9-3.5-1.3-5.4-1.3c-1.9,0-3.8,0.4-5.5,1.2
	c-1.6,0.8-2.9,1.8-4.1,3.1c-1.1,1.3-2,2.9-2.6,4.6c-1.2,3.5-1.2,7.4,0,10.9c0.6,1.7,1.4,3.2,2.6,4.6c1.1,1.3,2.5,2.4,4.1,3.2
	c3.5,1.6,7.5,1.6,11,0c1.6-0.7,3-1.8,4.1-3.2l5.3,4.8c-1.7,2-3.9,3.5-6.3,4.6c-2.7,1.1-5.6,1.7-8.6,1.6c-2.9,0-5.8-0.5-8.5-1.5
	c-2.5-0.9-4.8-2.4-6.8-4.2c-1.9-1.9-3.5-4.1-4.5-6.6c-1.1-2.7-1.7-5.7-1.6-8.6c0-2.9,0.5-5.8,1.6-8.5c1-2.5,2.5-4.7,4.4-6.6
	c1.9-1.9,4.2-3.3,6.7-4.3c2.7-1,5.6-1.5,8.4-1.5c2.9,0,5.7,0.6,8.3,1.7c2.6,1,4.9,2.7,6.6,4.9L1269.8,354.7z"/>
<path class="st0" d="M1288.1,361.9h0.2l16.7-17.3h10.6l-18.6,18l20.2,21.7h-10.9l-17.9-20.6h-0.2v20.6h-7.9V321h7.9L1288.1,361.9z"
	/>
<path class="st0" d="M1338.9,325h20.4c2.3,0,4.5,0.3,6.7,0.8c2.1,0.5,4.2,1.3,6,2.5c1.8,1.2,3.2,2.8,4.3,4.6
	c1.2,2.2,1.7,4.6,1.6,7.1c0.1,3-0.9,6-2.8,8.3c-2,2.3-4.6,3.9-7.6,4.6v0.2c1.8,0.2,3.6,0.7,5.3,1.5c1.6,0.7,3,1.7,4.2,3
	c1.2,1.3,2.1,2.7,2.7,4.4c0.7,1.8,1,3.7,1,5.6c0.1,2.6-0.5,5.2-1.8,7.5c-1.2,2.1-2.8,3.9-4.8,5.2c-2.2,1.4-4.6,2.5-7.1,3.1
	c-2.8,0.7-5.8,1.1-8.7,1h-19.5L1338.9,325z M1347.2,350.1h10.8c1.5,0,3-0.2,4.5-0.5c1.3-0.3,2.6-0.9,3.7-1.7
	c1.1-0.7,1.9-1.7,2.5-2.8c0.6-1.3,1-2.7,0.9-4.2c0-3.2-1.2-5.5-3.5-6.8s-5.5-2-9.5-2h-9.5L1347.2,350.1z M1347.2,377.3h10.4
	c1.8,0,3.5-0.2,5.2-0.5c1.7-0.3,3.3-0.8,4.8-1.6c1.4-0.7,2.6-1.8,3.4-3.1c0.9-1.5,1.4-3.2,1.3-5c0-3.5-1.2-6.1-3.6-7.6
	c-2.4-1.6-5.9-2.3-10.4-2.3h-11.2V377.3z"/>
<path class="st0" d="M1413.6,358.6c0-3-0.9-5.2-2.7-6.6c-2.1-1.5-4.6-2.3-7.1-2.1c-2.2,0-4.3,0.4-6.3,1.3c-1.9,0.8-3.6,1.9-5,3.3
	l-4.2-5c2.1-1.9,4.5-3.4,7.2-4.4c2.9-1.1,6-1.6,9.1-1.6c2.5-0.1,5,0.4,7.4,1.2c1.9,0.7,3.7,1.8,5.2,3.3c1.3,1.4,2.4,3.1,3,5
	c0.7,2,1,4,1,6.1v17.3c0,1.3,0,2.8,0.1,4.2c0.1,1.2,0.2,2.4,0.5,3.7h-7.1c-0.4-1.9-0.7-3.8-0.7-5.7h-0.2c-1.4,2.1-3.3,3.8-5.5,5
	c-2.4,1.2-5.1,1.8-7.8,1.8c-1.7,0-3.3-0.2-4.9-0.6c-1.7-0.4-3.2-1.1-4.7-2c-1.4-1-2.6-2.3-3.5-3.8c-1-1.8-1.4-3.8-1.4-5.8
	c-0.1-2.6,0.7-5.2,2.4-7.2c1.8-1.8,3.9-3.2,6.4-4c2.9-1,5.9-1.6,8.9-1.8c3.3-0.3,6.7-0.4,10-0.4L1413.6,358.6z M1411.7,365.4
	c-2,0-4,0.1-6.1,0.2c-1.9,0.1-3.8,0.5-5.7,1c-1.6,0.4-3,1.2-4.2,2.3c-1.1,1-1.7,2.5-1.7,4c0,1,0.2,2,0.7,2.9
	c0.5,0.8,1.1,1.4,1.9,1.9c0.8,0.5,1.7,0.9,2.6,1c1,0.2,2,0.3,2.9,0.3c3.7,0,6.5-1.1,8.5-3.3c2-2.3,3.1-5.3,3-8.3v-2.1L1411.7,365.4z
	"/>
<path class="st0" d="M1452.5,354.7c-0.9-1.5-2.2-2.7-3.8-3.6c-1.7-0.9-3.5-1.4-5.4-1.4c-0.9,0-1.8,0.1-2.7,0.3
	c-0.8,0.2-1.6,0.5-2.4,0.9c-0.7,0.4-1.2,0.9-1.7,1.6c-0.4,0.7-0.7,1.5-0.6,2.4c-0.1,1.6,0.8,3.1,2.3,3.7c2.2,1,4.4,1.8,6.8,2.2
	c1.8,0.4,3.5,0.9,5.3,1.6c1.5,0.6,2.9,1.3,4.2,2.3c1.2,0.9,2.1,2,2.8,3.3c0.7,1.4,1,3,1,4.5c0.1,2.1-0.4,4.1-1.3,6
	c-0.9,1.6-2.1,3-3.6,4c-1.5,1.1-3.3,1.8-5.1,2.2c-1.9,0.5-3.9,0.7-5.9,0.7c-3,0-6-0.6-8.8-1.8c-2.8-1.1-5.3-3-7.2-5.4l5.6-4.8
	c1.1,1.6,2.6,3,4.4,3.9c1.9,1.1,4,1.6,6.2,1.6c1,0,1.9-0.1,2.9-0.3c0.9-0.2,1.7-0.5,2.5-1c0.7-0.4,1.4-1,1.8-1.8
	c0.5-0.8,0.7-1.8,0.7-2.8c0-1.8-1-3.4-2.6-4.1c-2.5-1.1-5.1-2-7.8-2.5c-1.3-0.3-2.7-0.7-4.1-1.2c-1.3-0.5-2.6-1.1-3.7-2
	c-1.1-0.8-2-1.9-2.7-3.2c-0.7-1.4-1.1-3-1-4.7c0-1.9,0.4-3.8,1.3-5.5c0.8-1.5,2-2.8,3.4-3.8c1.5-1,3.1-1.7,4.8-2.2
	c4.6-1.2,9.4-0.9,13.8,1c2.5,1,4.6,2.7,6.2,4.9L1452.5,354.7z"/>
<path class="st0" d="M1502,364.1v1.3c0,0.4,0,0.9-0.1,1.3h-31.6c0,1.6,0.4,3.2,1.1,4.7c0.7,1.4,1.6,2.8,2.8,3.8
	c4.4,3.9,10.8,4.6,15.9,1.7c1.8-1.1,3.4-2.5,4.6-4.3l5.5,4.5c-1.9,2.7-4.5,4.8-7.5,6.2c-5.7,2.5-12.2,2.7-18,0.5
	c-5-1.9-9-5.8-11-10.8c-1.1-2.7-1.6-5.6-1.6-8.5c0-2.9,0.5-5.8,1.6-8.5c1-2.5,2.4-4.8,4.3-6.7c1.9-1.9,4.1-3.3,6.6-4.3
	c5.2-2,10.9-2.1,16.1-0.1c2.3,0.9,4.3,2.3,6,4.1c1.7,1.9,3,4.1,3.8,6.5C1501.5,358.3,1502,361.2,1502,364.1z M1494,360.9
	c0-1.5-0.3-3-0.8-4.4c-0.4-1.3-1.2-2.5-2.1-3.6c-1-1-2.1-1.9-3.4-2.4c-1.5-0.6-3.2-0.9-4.8-0.9c-1.6,0-3.2,0.3-4.7,0.9
	c-1.4,0.5-2.7,1.4-3.9,2.4c-1.1,1-2,2.2-2.7,3.6c-0.7,1.4-1.1,2.9-1.2,4.4H1494z"/>
</svg>
