<svg enable-background="new 0 0 1594.2 391.9" viewBox="0 0 1594.2 391.9" xmlns="http://www.w3.org/2000/svg"><g fill="#fff"><path d="m451.9 289.4c-35.6 0-58.9-7.8-92.9-26.7l14-31.4c32.3 15.4 55.3 24.4 74.9 24.4 24.4 0 59.8-7.3 59.8-29.2 0-17.7-28.3-21.9-62.6-25.2-41.2-4.2-88.9-10.7-88.9-56.1 0-49.4 60.3-60.3 97.3-60.3 33.4 0 63.4 8.1 92.3 25l-12.8 28.6c-25-13.2-54.1-20.2-79.4-20.2-40.1 0-53.6 13.5-53.6 25.2 0 19.9 43.5 20.5 57.8 21.9 39.8 3.4 94.5 10.1 94.5 61.2.1 49.9-60.8 62.8-100.4 62.8z"/><path d="m841.3 286.6h-40.1l-13.2-115.9-.6-.6-75.8 113.1h-13.5l-71.4-112.2-.6.8-12.6 114.7h-40.1l17.4-196.7h26.1l89.8 135h.6l90.6-135h24.4z"/><path d="m1036.8 286.6-20.5-44-97.4.3-20.8 43.8h-43.1l96.8-197.2h37l92.6 197.2zm-68.5-149.3h-.3l-34.8 73.5h69z"/><path d="m1072.8 187.5c0-64 60-103.5 115-103.5 43.8 0 75.8 16 98.5 34.5l-19.6 29.5c-19.1-14.9-42.7-29.2-77.2-29.2-36.8 0-71.8 26.4-71.8 69.6 0 42.1 35.1 69.3 71.6 69.3 34.5 0 59.2-14.6 78.8-29.7l22.2 25.5c-12.9 14.9-49.4 38.2-101.3 38.2-50.8-.1-116.2-35.7-116.2-104.2z"/><path d="m1445.9 286.6-68.2-87.5-24.6 22.5v65.1h-45.4v-196.8h45.4v85.3l92-85.3h48.2l-86.4 81.1 91.2 115.5h-52.2z"/><path d="m188.9 293.2-.3-.3c-30.4-28.2-46.5-61.6-46.5-96.5 0-39.4 18.6-76.7 50.9-102.3l9.9-7.8-31.2-19.7-4.8 2.9c-17 10.5-72.8 50.5-72.8 127 0 33.3 12.5 82.2 72.2 126l5.3 3.9 28.6-21.2-7-7.3c-1.4-1.5-2.7-3-4.3-4.7z"/><path d="m290.7 293.2-.3-.3c-30.4-28.2-46.5-61.5-46.5-96.5 0-39.4 18.5-76.7 50.9-102.3l9.9-7.8-31.2-19.7-4.7 2.9c-17.1 10.5-72.8 50.6-72.8 127 0 33.3 12.5 82.2 72.2 126l5.3 3.9 28.6-21.2-7-7.3c-1.4-1.5-2.8-3-4.4-4.7z"/></g></svg>