<svg enable-background="new 0 0 1600 460" viewBox="0 0 1600 460" xmlns="http://www.w3.org/2000/svg"><path d="m455.8 287.3c-35.6 0-58.9-7.8-92.9-26.7l14-31.4c32.3 15.4 55.3 24.4 74.9 24.4 24.4 0 59.8-7.3 59.8-29.2 0-17.7-28.3-21.9-62.6-25.2-41.2-4.2-88.9-10.7-88.9-56.1 0-49.4 60.3-60.3 97.3-60.3 33.4 0 63.4 8.1 92.3 25l-12.9 28.6c-25-13.2-54.1-20.2-79.4-20.2-40.1 0-53.6 13.5-53.6 25.2 0 19.9 43.5 20.5 57.8 21.9 39.8 3.4 94.5 10.1 94.5 61.2.2 49.9-60.7 62.8-100.3 62.8z" fill="#fcfaf7"/><path d="m845.2 284.5h-40.1l-13.2-115.9-.6-.6-75.8 113.1h-13.5l-71.4-112.1-.6.8-12.6 114.7h-40.1l17.4-196.7h26.1l89.8 135h.6l90.6-135h24.4z" fill="#fcfaf7"/><path d="m1040.7 284.5-20.5-44-97.4.3-20.8 43.8h-43.2l96.8-197.2h37l92.6 197.2zm-68.5-149.2h-.3l-34.8 73.5h69z" fill="#fcfaf7"/><path d="m1076.7 185.5c0-64 60-103.5 115-103.5 43.8 0 75.8 16 98.5 34.5l-19.6 29.5c-19.1-14.9-42.7-29.2-77.2-29.2-36.8 0-71.8 26.4-71.8 69.6 0 42.1 35.1 69.3 71.6 69.3 34.5 0 59.2-14.6 78.8-29.7l22.2 25.5c-12.9 14.9-49.4 38.2-101.3 38.2-50.8-.1-116.2-35.7-116.2-104.2z" fill="#fcfaf7"/><path d="m1449.8 284.5-68.2-87.5-24.6 22.5v65.1h-45.4v-196.7h45.4v85.3l92-85.3h48.2l-86.4 81.1 91.2 115.5z" fill="#fcfaf7"/><path d="m192.8 291.2-.3-.3c-30.4-28.2-46.5-61.6-46.5-96.5 0-39.4 18.6-76.7 50.9-102.3l9.9-7.8-31.2-19.7-4.8 2.9c-17 10.4-72.8 50.5-72.8 126.9 0 33.3 12.5 82.2 72.2 126l5.3 3.9 28.6-21.2-7-7.3c-1.4-1.5-2.7-3-4.3-4.6z" fill="#ffb81c"/><path d="m294.6 291.2-.3-.3c-30.4-28.2-46.5-61.5-46.5-96.5 0-39.4 18.5-76.7 50.9-102.3l9.9-7.8-31.2-19.7-4.7 2.9c-17.1 10.5-72.8 50.6-72.8 127 0 33.3 12.5 82.2 72.2 126l5.3 3.9 28.6-21.2-7-7.3c-1.5-1.6-2.8-3.1-4.4-4.7z" fill="#ffb81c"/><g fill="#fcfaf7"><path d="m671.9 326h18.1c2.9 0 5.9.3 8.7 1 2.4.6 4.7 1.6 6.7 3 1.8 1.3 3.3 3.1 4.3 5.1 1.1 2.3 1.6 4.9 1.5 7.5.1 2.6-.5 5.3-1.6 7.6-1 2.1-2.6 3.9-4.5 5.2-2.1 1.4-4.4 2.4-6.9 3-2.8.7-5.7 1-8.6 1h-9.4v26.1h-8.3zm8.3 26.2h8.8c1.9 0 3.7-.2 5.6-.5 1.6-.3 3.1-.9 4.4-1.7 1.2-.7 2.2-1.8 2.8-3 .7-1.4 1.1-3 1-4.5.1-1.6-.3-3.1-1-4.5-.7-1.2-1.7-2.2-2.8-2.9-1.3-.8-2.8-1.3-4.3-1.6-1.8-.3-3.6-.5-5.5-.5h-9z"/><path d="m752.8 365.4c0 2.9-.5 5.8-1.6 8.5-1 2.5-2.6 4.8-4.5 6.7-2 1.9-4.3 3.4-6.8 4.4-5.5 2.1-11.5 2.1-16.9 0-2.5-1-4.8-2.5-6.8-4.4-1.9-1.9-3.4-4.2-4.5-6.7-1.1-2.7-1.7-5.6-1.6-8.5 0-2.9.5-5.8 1.6-8.4 2.1-5 6.2-9 11.3-10.9 5.5-2.1 11.5-2.1 16.9 0 2.5 1 4.9 2.4 6.8 4.3s3.5 4.1 4.5 6.6c1.1 2.6 1.6 5.5 1.6 8.4zm-8.2 0c0-1.8-.3-3.7-.9-5.4s-1.4-3.2-2.6-4.6c-1.1-1.3-2.5-2.4-4.1-3.1-3.6-1.6-7.7-1.6-11.3 0-1.6.7-3 1.8-4.2 3.1-1.1 1.3-2 2.9-2.6 4.6-1.2 3.5-1.2 7.3 0 10.9.6 1.7 1.4 3.2 2.6 4.6 1.1 1.4 2.6 2.4 4.2 3.2 3.6 1.6 7.7 1.6 11.3 0 1.6-.7 3-1.8 4.2-3.2 1.1-1.4 2-2.9 2.6-4.6.5-1.8.8-3.6.8-5.5z"/><path d="m763.3 345.6 9 30.3h.2l9.5-30.3h8.3l9.6 30.3h.2l9-30.3h8.3l-13.2 39.7h-8.2l-9.8-29.8h-.2l-9.7 29.8h-8.3l-13.3-39.7z"/><path d="m858.9 365.1v1.3c0 .4 0 .9-.1 1.3h-31.6c.1 1.6.4 3.2 1.1 4.7.7 1.4 1.6 2.8 2.8 3.8 4.4 3.9 10.8 4.6 15.9 1.7 1.8-1.1 3.4-2.5 4.6-4.3l5.5 4.5c-1.9 2.7-4.5 4.8-7.5 6.2-5.7 2.5-12.2 2.7-18 .5-5-1.9-9-5.8-11-10.8-1.1-2.7-1.6-5.6-1.6-8.5s.5-5.8 1.5-8.5c1.9-5 5.9-9 10.9-11 5.2-2 10.9-2.1 16.1-.1 2.3.9 4.3 2.3 6 4.1 1.7 1.9 3 4.1 3.8 6.5 1.1 2.8 1.6 5.7 1.6 8.6zm-8-3.2c0-1.5-.3-3-.8-4.4-.4-1.3-1.2-2.5-2.1-3.5-1-1-2.1-1.9-3.4-2.4-1.5-.6-3.2-.9-4.8-.9s-3.2.3-4.7.9c-1.4.5-2.7 1.4-3.9 2.4-1.1 1-2 2.2-2.7 3.6s-1.1 2.9-1.2 4.4z"/><path d="m866.4 350c0-1.7-.1-3.2-.2-4.4h7.5c.1 1 .2 2.2.2 3.5s.1 2.4.1 3.2h.2c1.1-2.3 2.8-4.3 4.9-5.7s4.7-2.2 7.2-2.1c1 0 2.1.1 3.1.3l-.3 7.3c-1.2-.3-2.4-.4-3.6-.4-1.7-.1-3.4.3-5 1-1.4.7-2.5 1.6-3.5 2.8-.9 1.2-1.6 2.6-2 4.1-.5 1.6-.7 3.2-.7 4.8v20.9h-7.9v-31.1c.1-1.1 0-2.5 0-4.2z"/><path d="m929.1 365.1v1.3c0 .4 0 .9-.1 1.3h-31.6c0 1.6.4 3.2 1.1 4.7s1.6 2.8 2.8 3.8c2.5 2.2 5.7 3.5 9 3.5 2.5.1 4.9-.5 7-1.8 1.8-1.1 3.4-2.5 4.6-4.3l5.5 4.5c-1.9 2.7-4.5 4.8-7.5 6.2-5.7 2.5-12.2 2.7-18 .5-2.5-.9-4.7-2.4-6.6-4.2-1.9-1.9-3.4-4.1-4.4-6.6-1.1-2.7-1.6-5.6-1.6-8.5s.5-5.8 1.6-8.5c1.9-5 5.9-9 10.9-11 5.2-2 10.9-2.1 16.1-.1 2.3.9 4.4 2.3 6.1 4.1 1.7 1.9 3 4.1 3.8 6.5.9 2.8 1.4 5.7 1.3 8.6zm-8-3.2c0-1.5-.3-3-.8-4.4-.4-1.3-1.2-2.5-2.1-3.6-1-1-2.1-1.9-3.4-2.4-1.5-.6-3.2-.9-4.8-.9s-3.2.3-4.7.9c-1.4.5-2.7 1.4-3.9 2.4-1.1 1-2 2.2-2.7 3.6s-1.1 2.9-1.2 4.4z"/><path d="m968.3 379c-1.5 2.4-3.6 4.3-6.2 5.5-2.5 1.2-5.3 1.9-8.2 1.9-2.8 0-5.7-.5-8.3-1.6-2.4-1-4.5-2.6-6.3-4.5-1.8-2-3.1-4.2-4-6.7-1-2.6-1.4-5.4-1.4-8.2s.5-5.6 1.4-8.2c.9-2.5 2.3-4.7 4.1-6.7 1.8-1.9 3.9-3.4 6.3-4.4 2.6-1.1 5.3-1.6 8.1-1.6 3-.1 5.9.6 8.5 2.1 2.2 1.2 4.2 2.9 5.7 5h.2v-29.6h7.9v63.4h-7.6v-6.3zm-26.1-13.6c0 1.8.3 3.6.8 5.3s1.4 3.2 2.5 4.6 2.5 2.4 4.1 3.2c3.6 1.6 7.6 1.6 11.2 0 1.6-.7 3-1.8 4.2-3.1s2.1-2.9 2.7-4.6c1.3-3.5 1.3-7.4 0-10.9-.6-1.7-1.5-3.2-2.7-4.6-1.2-1.3-2.6-2.4-4.2-3.2-1.7-.8-3.6-1.2-5.5-1.2-2 0-3.9.4-5.7 1.2-1.6.7-3 1.8-4.1 3.2s-2 2.9-2.5 4.6c-.6 1.9-.8 3.7-.8 5.5z"/><path d="m1011.9 379v6.3h-7.6v-63.3h7.9v29.6h.2c1.5-2.1 3.4-3.8 5.6-5 2.6-1.4 5.6-2.1 8.5-2.1 2.8 0 5.5.5 8.1 1.6 2.4 1 4.5 2.5 6.3 4.4s3.1 4.2 4 6.7c1 2.6 1.4 5.4 1.4 8.2s-.5 5.6-1.4 8.2c-.9 2.5-2.2 4.7-4 6.7-1.8 1.9-3.9 3.4-6.3 4.5-2.6 1.1-5.4 1.7-8.3 1.6-2.8 0-5.6-.6-8.1-1.9-2.5-1.2-4.7-3.1-6.2-5.5zm26.4-13.6c0-1.8-.3-3.6-.8-5.3s-1.4-3.2-2.5-4.6c-1.1-1.3-2.6-2.4-4.2-3.2-1.8-.8-3.8-1.2-5.8-1.2-1.9 0-3.8.4-5.5 1.2-1.6.8-3.1 1.8-4.2 3.2-1.2 1.4-2.1 2.9-2.7 4.6-1.3 3.5-1.3 7.4 0 10.9.6 1.7 1.5 3.2 2.7 4.6 1.2 1.3 2.6 2.4 4.2 3.1 1.7.8 3.6 1.2 5.5 1.2 2 0 4-.4 5.8-1.2 1.6-.8 3-1.9 4.2-3.2 1.1-1.4 2-2.9 2.5-4.6.5-1.9.8-3.7.8-5.5z"/><path d="m1069.2 376.8h.2l11-31.2h8.4l-19.3 49.1c-.6 1.5-1.3 3-2.2 4.5-.7 1.3-1.7 2.4-2.8 3.4-1.1.9-2.4 1.7-3.7 2.1-1.6.5-3.3.8-5.1.8-.8 0-1.7 0-2.6-.1s-1.8-.2-2.6-.5l.8-7c1.3.4 2.6.7 3.9.7 1.7.1 3.4-.5 4.6-1.7 1.2-1.5 2.1-3.1 2.8-4.9l2.5-6.6-17-39.7h8.8z"/><path d="m1173.7 385.3h-34.9c-4.2 0-8.5-.7-12.4-2.2-3.6-1.4-7-3.4-9.8-6.1s-5-6-6.4-9.6c-1.6-4-2.3-8.3-2.2-12.6 0-4.2.8-8.4 2.3-12.3 1.5-3.6 3.7-6.9 6.5-9.6s6.1-4.9 9.8-6.3c3.9-1.5 8.1-2.3 12.4-2.3 4.2 0 8.3.7 12.2 2.3 3.6 1.4 6.9 3.6 9.7 6.3s4.9 6 6.4 9.6c1.6 3.9 2.3 8.1 2.3 12.3.1 4.9-1 9.7-3.3 13.9-2.1 3.8-5.2 7.1-8.9 9.4v.2h16.3zm-56.7-30.4c0 3.1.5 6.2 1.6 9.1 1 2.7 2.5 5.2 4.4 7.3s4.3 3.8 6.9 4.9c5.8 2.4 12.2 2.4 18 0 2.6-1.1 5-2.8 6.9-4.9s3.5-4.6 4.4-7.3c1.1-2.9 1.6-6 1.6-9.1s-.5-6.1-1.5-9c-1-2.7-2.4-5.2-4.4-7.3-1.9-2.1-4.3-3.8-6.9-5-8.5-3.9-18.6-1.9-25 5-1.9 2.1-3.5 4.6-4.4 7.3-1.1 2.9-1.6 5.9-1.6 9z"/><path d="m1206.2 385.3c-.1-1-.2-2.1-.2-3.4s-.1-2.3-.1-3.2h-.2c-1.1 2.3-2.9 4.1-5.1 5.4-2.4 1.5-5.1 2.3-7.9 2.2-2.3.1-4.6-.4-6.7-1.3-1.8-.8-3.4-2-4.6-3.5s-2.1-3.3-2.7-5.2c-.6-2-.9-4.2-.9-6.3v-24.6h7.9v22c0 1.6.1 3.1.4 4.7.2 1.4.7 2.7 1.4 3.9.7 1.1 1.6 2 2.8 2.7 1.4.7 3 1.1 4.5 1 3 .1 5.8-1.2 7.7-3.6s2.9-5.6 2.9-9.5v-21.2h7.9v31.2c0 1.1 0 2.4.1 4.1s.1 3.2.3 4.4z"/><path d="m1232.8 331.3c0 1.4-.5 2.7-1.5 3.6s-2.3 1.5-3.7 1.4c-1.4 0-2.7-.5-3.7-1.5-1-.9-1.5-2.2-1.5-3.6s.5-2.7 1.5-3.7 2.3-1.5 3.7-1.5 2.7.5 3.7 1.5c1 1.1 1.5 2.4 1.5 3.8zm-1.2 54h-7.9v-39.7h7.9z"/><path d="m1269.8 355.7c-1-1.4-2.3-2.5-3.8-3.2-1.7-.9-3.5-1.3-5.4-1.3s-3.8.4-5.5 1.2c-1.6.8-2.9 1.8-4.1 3.1-1.1 1.3-2 2.9-2.6 4.6-1.2 3.5-1.2 7.4 0 10.9.6 1.7 1.4 3.2 2.6 4.6 1.1 1.3 2.5 2.4 4.1 3.2 3.5 1.6 7.5 1.6 11 0 1.6-.7 3-1.8 4.1-3.2l5.3 4.8c-1.7 2-3.9 3.5-6.3 4.6-2.7 1.1-5.6 1.7-8.6 1.6-2.9 0-5.8-.5-8.5-1.5-2.5-.9-4.8-2.4-6.8-4.2-1.9-1.9-3.5-4.1-4.5-6.6-1.1-2.7-1.7-5.7-1.6-8.6 0-2.9.5-5.8 1.6-8.5 1-2.5 2.5-4.7 4.4-6.6s4.2-3.3 6.7-4.3c2.7-1 5.6-1.5 8.4-1.5 2.9 0 5.7.6 8.3 1.7 2.6 1 4.9 2.7 6.6 4.9z"/><path d="m1288.1 362.9h.2l16.7-17.3h10.6l-18.6 18 20.2 21.7h-10.9l-17.9-20.6h-.2v20.6h-7.9v-63.3h7.9z"/><path d="m1338.9 326h20.4c2.3 0 4.5.3 6.7.8 2.1.5 4.2 1.3 6 2.5s3.2 2.8 4.3 4.6c1.2 2.2 1.7 4.6 1.6 7.1.1 3-.9 6-2.8 8.3-2 2.3-4.6 3.9-7.6 4.6v.2c1.8.2 3.6.7 5.3 1.5 1.6.7 3 1.7 4.2 3s2.1 2.7 2.7 4.4c.7 1.8 1 3.7 1 5.6.1 2.6-.5 5.2-1.8 7.5-1.2 2.1-2.8 3.9-4.8 5.2-2.2 1.4-4.6 2.5-7.1 3.1-2.8.7-5.8 1.1-8.7 1h-19.5zm8.3 25.1h10.8c1.5 0 3-.2 4.5-.5 1.3-.3 2.6-.9 3.7-1.7 1.1-.7 1.9-1.7 2.5-2.8.6-1.3 1-2.7.9-4.2 0-3.2-1.2-5.5-3.5-6.8s-5.5-2-9.5-2h-9.5zm0 27.2h10.4c1.8 0 3.5-.2 5.2-.5s3.3-.8 4.8-1.6c1.4-.7 2.6-1.8 3.4-3.1.9-1.5 1.4-3.2 1.3-5 0-3.5-1.2-6.1-3.6-7.6-2.4-1.6-5.9-2.3-10.4-2.3h-11.2v20.1z"/><path d="m1413.6 359.6c0-3-.9-5.2-2.7-6.6-2.1-1.5-4.6-2.3-7.1-2.1-2.2 0-4.3.4-6.3 1.3-1.9.8-3.6 1.9-5 3.3l-4.2-5c2.1-1.9 4.5-3.4 7.2-4.4 2.9-1.1 6-1.6 9.1-1.6 2.5-.1 5 .4 7.4 1.2 1.9.7 3.7 1.8 5.2 3.3 1.3 1.4 2.4 3.1 3 5 .7 2 1 4 1 6.1v17.3c0 1.3 0 2.8.1 4.2.1 1.2.2 2.4.5 3.7h-7.1c-.4-1.9-.7-3.8-.7-5.7h-.2c-1.4 2.1-3.3 3.8-5.5 5-2.4 1.2-5.1 1.8-7.8 1.8-1.7 0-3.3-.2-4.9-.6-1.7-.4-3.2-1.1-4.7-2-1.4-1-2.6-2.3-3.5-3.8-1-1.8-1.4-3.8-1.4-5.8-.1-2.6.7-5.2 2.4-7.2 1.8-1.8 3.9-3.2 6.4-4 2.9-1 5.9-1.6 8.9-1.8 3.3-.3 6.7-.4 10-.4zm-1.9 6.8c-2 0-4 .1-6.1.2-1.9.1-3.8.5-5.7 1-1.6.4-3 1.2-4.2 2.3-1.1 1-1.7 2.5-1.7 4 0 1 .2 2 .7 2.9.5.8 1.1 1.4 1.9 1.9s1.7.9 2.6 1c1 .2 2 .3 2.9.3 3.7 0 6.5-1.1 8.5-3.3 2-2.3 3.1-5.3 3-8.3v-2.1z"/><path d="m1452.5 355.7c-.9-1.5-2.2-2.7-3.8-3.6-1.7-.9-3.5-1.4-5.4-1.4-.9 0-1.8.1-2.7.3-.8.2-1.6.5-2.4.9-.7.4-1.2.9-1.7 1.6-.4.7-.7 1.5-.6 2.4-.1 1.6.8 3.1 2.3 3.7 2.2 1 4.4 1.8 6.8 2.2 1.8.4 3.5.9 5.3 1.6 1.5.6 2.9 1.3 4.2 2.3 1.2.9 2.1 2 2.8 3.3.7 1.4 1 3 1 4.5.1 2.1-.4 4.1-1.3 6-.9 1.6-2.1 3-3.6 4-1.5 1.1-3.3 1.8-5.1 2.2-1.9.5-3.9.7-5.9.7-3 0-6-.6-8.8-1.8-2.8-1.1-5.3-3-7.2-5.4l5.6-4.8c1.1 1.6 2.6 3 4.4 3.9 1.9 1.1 4 1.6 6.2 1.6 1 0 1.9-.1 2.9-.3.9-.2 1.7-.5 2.5-1 .7-.4 1.4-1 1.8-1.8.5-.8.7-1.8.7-2.8 0-1.8-1-3.4-2.6-4.1-2.5-1.1-5.1-2-7.8-2.5-1.3-.3-2.7-.7-4.1-1.2-1.3-.5-2.6-1.1-3.7-2-1.1-.8-2-1.9-2.7-3.2-.7-1.4-1.1-3-1-4.7 0-1.9.4-3.8 1.3-5.5.8-1.5 2-2.8 3.4-3.8 1.5-1 3.1-1.7 4.8-2.2 4.6-1.2 9.4-.9 13.8 1 2.5 1 4.6 2.7 6.2 4.9z"/><path d="m1502 365.1v1.3c0 .4 0 .9-.1 1.3h-31.6c0 1.6.4 3.2 1.1 4.7.7 1.4 1.6 2.8 2.8 3.8 4.4 3.9 10.8 4.6 15.9 1.7 1.8-1.1 3.4-2.5 4.6-4.3l5.5 4.5c-1.9 2.7-4.5 4.8-7.5 6.2-5.7 2.5-12.2 2.7-18 .5-5-1.9-9-5.8-11-10.8-1.1-2.7-1.6-5.6-1.6-8.5s.5-5.8 1.6-8.5c1-2.5 2.4-4.8 4.3-6.7s4.1-3.3 6.6-4.3c5.2-2 10.9-2.1 16.1-.1 2.3.9 4.3 2.3 6 4.1 1.7 1.9 3 4.1 3.8 6.5 1 2.8 1.5 5.7 1.5 8.6zm-8-3.2c0-1.5-.3-3-.8-4.4-.4-1.3-1.2-2.5-2.1-3.6-1-1-2.1-1.9-3.4-2.4-1.5-.6-3.2-.9-4.8-.9s-3.2.3-4.7.9c-1.4.5-2.7 1.4-3.9 2.4-1.1 1-2 2.2-2.7 3.6s-1.1 2.9-1.2 4.4z"/></g></svg>