<svg enable-background="new 0 0 460 94" viewBox="0 0 460 94" xmlns="http://www.w3.org/2000/svg"><g fill="#4a4f54"><path d="m119.7 77c-11.4 0-18.8-2.5-29.6-8.5l4.5-10c10.3 4.9 17.6 7.8 23.9 7.8 7.8 0 19-2.3 19-9.3 0-5.6-9-7-19.9-8-13.1-1.3-28.3-3.4-28.3-17.9 0-15.7 19.2-19.2 31-19.2 10.6 0 20.2 2.6 29.4 8l-4.1 9.1c-8-4.2-17.2-6.4-25.3-6.4-12.8 0-17.1 4.3-17.1 8 0 6.3 13.9 6.5 18.4 7 12.7 1.1 30.1 3.2 30.1 19.5 0 15.7-19.4 19.9-32 19.9"/><path d="m243.7 76.1h-12.8l-4.2-37-.2-.1-24.1 36h-4.3l-22.8-35.8-.1.3-4.1 36.6h-12.7l5.5-62.7h8.3l28.6 43h.2l28.9-43h7.7z"/><path d="m283.8 28.5-11.2 23.4h22zm21.8 47.6-6.5-14-31 .1-6.6 13.9h-13.8l30.8-62.8h11.8l29.5 62.8z"/><path d="m317.4 44.5c0-20.4 19.1-33 36.6-33 13.9 0 24.1 5.1 31.4 11l-6.3 9.4c-6.1-4.7-13.6-9.3-24.6-9.3-11.7 0-22.9 8.4-22.9 22.2 0 13.4 11.2 22.1 22.8 22.1 11 0 18.9-4.6 25.1-9.5l7.1 8.1c-4.1 4.7-15.7 12.2-32.3 12.2-16 0-36.9-11.4-36.9-33.2"/><path d="m436.3 76.1-21.7-27.9-7.9 7.1v20.8h-14.5v-62.7h14.5v27.2l29.3-27.2h15.4l-27.5 25.8 29 36.9z"/></g><path d="m35.9 78.2c-9.8-9.1-14.9-19.7-14.9-30.8 0-12.6 5.9-24.4 16.2-32.6l3.2-2.5-10-6.3-1.5.9c-5.5 3.3-23.2 16.1-23.2 40.5 0 10.6 4 26.2 23 40.1l1.7 1.2 9.1-6.8-2.2-2.3c-.5-.4-.9-.9-1.4-1.4" fill="#ffb81c"/><path d="m68.3 78.2c-9.8-9.1-14.9-19.7-14.9-30.8 0-12.6 5.9-24.4 16.2-32.6l3.2-2.5-10-6.3-1.5.9c-5.4 3.3-23.2 16.1-23.2 40.5 0 10.6 4 26.2 23 40.1l1.7 1.2 9.1-6.8-2.2-2.3c-.5-.4-.9-.9-1.4-1.4" fill="#ffb81c"/></svg>