<svg enable-background="new 0 0 1024 1024" viewBox="0 0 1024 1024" xmlns="http://www.w3.org/2000/svg" xmlns:xlink="http://www.w3.org/1999/xlink"><pattern id="a" height="113.9" overflow="visible" patternUnits="userSpaceOnUse" viewBox="15.2 -132.7 113.9 113.9" width="113.9"><path d="m15.2-132.7h113.9v113.9h-113.9z" fill="none"/><path d="m70.7-61.8c-4.4-4.1-6.8-8.9-6.8-14 0-5.7 2.7-11.1 7.4-14.8l1.4-1.1-4.5-2.8-.7.4c-2.5 1.5-10.5 7.3-10.5 18.4 0 4.8 1.8 11.9 10.4 18.2l.8.6 4.1-3.1-1-1.1c-.2-.2-.4-.4-.6-.7z" fill="#fdb71d"/><path d="m85.4-61.8c-4.4-4.1-6.8-8.9-6.8-14 0-5.7 2.7-11.1 7.4-14.8l1.4-1.1-4.5-2.8-.7.4c-2.5 1.5-10.5 7.3-10.5 18.4 0 4.8 1.8 11.9 10.4 18.2l.8.6 4.1-3.1-1-1.1c-.2-.2-.4-.4-.6-.7z" fill="#fdb71d"/><path d="m13.7-4.8c-4.4-4.1-6.8-8.9-6.8-14 0-5.7 2.7-11.1 7.4-14.8l1.4-1.1-4.5-2.8-.7.4c-2.4 1.4-10.5 7.2-10.5 18.3 0 4.8 1.8 11.9 10.4 18.2l.8.6 4.1-3.1-1-1.1c-.2-.1-.4-.4-.6-.6z" fill="#fdb71d"/><path d="m28.4-4.8c-4.4-4.1-6.8-8.9-6.8-14 0-5.7 2.7-11.1 7.4-14.8l1.4-1.1-4.4-2.9-.7.4c-2.5 1.5-10.5 7.3-10.5 18.4 0 4.8 1.8 11.9 10.4 18.2l.7.6 4.1-3.1-1-1.1c-.1-.1-.3-.4-.6-.6z" fill="#fdb71d"/><path d="m127.6-4.8c-4.4-4.1-6.8-8.9-6.8-14 0-5.7 2.7-11.1 7.4-14.8l1.4-1.1-4.5-2.8-.7.4c-2.5 1.5-10.5 7.3-10.5 18.4 0 4.8 1.8 11.9 10.4 18.2l.8.6 4.1-3.1-1-1.1c-.2-.2-.4-.5-.6-.7z" fill="#fdb71d"/><path d="m142.3-4.8c-4.4-4.1-6.8-8.9-6.8-14 0-5.7 2.7-11.1 7.4-14.8l1.4-1.1-4.5-2.8-.7.4c-2.5 1.5-10.5 7.3-10.5 18.4 0 4.8 1.8 11.9 10.4 18.2l.8.6 4.1-3.1-1-1.1c-.1-.2-.3-.5-.6-.7z" fill="#fdb71d"/><path d="m127.6-118.7c-4.4-4.1-6.8-8.9-6.8-14 0-5.7 2.7-11.1 7.4-14.8l1.4-1.1-4.5-2.8-.7.4c-2.5 1.5-10.5 7.3-10.5 18.4 0 4.8 1.8 11.9 10.4 18.2l.8.6 4.1-3.1-1-1.1c-.2-.2-.4-.5-.6-.7z" fill="#fdb71d"/><path d="m142.3-118.7c-4.4-4.1-6.8-8.9-6.8-14 0-5.7 2.7-11.1 7.4-14.8l1.4-1.1-4.5-2.8-.7.4c-2.5 1.5-10.5 7.3-10.5 18.4 0 4.8 1.8 11.9 10.4 18.2l.8.6 4.1-3.1-1-1.1c-.1-.2-.3-.5-.6-.7z" fill="#fdb71d"/><path d="m13.7-118.7c-4.4-4.1-6.8-8.9-6.8-14 0-5.7 2.7-11.1 7.4-14.8l1.4-1.1-4.5-2.8-.7.4c-2.4 1.4-10.5 7.2-10.5 18.3 0 4.8 1.8 11.9 10.4 18.2l.8.6 4.1-3.1-1-1.1c-.2-.1-.4-.4-.6-.6z" fill="#fdb71d"/><path d="m28.4-118.7c-4.4-4.1-6.8-8.9-6.8-14 0-5.7 2.7-11.1 7.4-14.8l1.4-1.1-4.5-2.8-.7.4c-2.5 1.5-10.5 7.3-10.5 18.4 0 4.8 1.8 11.9 10.4 18.2l.8.6 4.1-3.1-1-1.1c-.1-.2-.3-.5-.6-.7z" fill="#fdb71d"/></pattern><pattern id="b" patternTransform="matrix(.3413 0 0 .3413 -5036.96 -4457.0562)" xlink:href="#a"/><path d="m0 0h1024v1024h-1024z" fill="url(#b)"/></svg>