<svg enable-background="new 0 0 1024 1024" viewBox="0 0 1024 1024" xmlns="http://www.w3.org/2000/svg"><path d="m489.7 711.1-.6-.6c-62.8-58.2-96-127-96-199.1 0-81.3 38.3-158.3 105.1-211.2l20.4-16.2-64.4-40.6-9.8 6c-35.4 21.5-150.4 104.3-150.4 262 0 68.8 25.9 169.7 149.1 260.1l11 8.1 59.1-43.8-14.4-15.1c-3.1-3.2-6-6.2-9.1-9.6z"/><path d="m699.8 711.1-.6-.6c-62.8-58.2-96-127-96-199.1 0-81.3 38.3-158.3 105.1-211.2l20.4-16.2-64.4-40.6-9.8 6c-35.3 21.6-150.3 104.3-150.3 262 0 68.8 25.9 169.7 149.1 260.1l11 8.1 59.1-43.8-14.4-15.1c-3.2-3.2-6.1-6.2-9.2-9.6z"/></svg>