<svg height="770.17774" viewBox="0 0 991.13988 770.17774" width="991.13988" xmlns="http://www.w3.org/2000/svg"><path d="m394.01076 64.91113-157.85319 85.50223a40.156 40.156 0 1 1 -70.5866 38.23373l-53.82344 29.15382 139.4193 257.39419 282.26323-152.88975z" fill="#f2f2f2" transform="translate(-104.43006 -64.91113)"/><circle cx="94.60365" cy="105.66791" fill="#ff7500" r="32.5874"/><path d="m790.38464 753.97532 170.67214-55.67116a40.156 40.156 0 1 1 76.31882-24.89429l58.19434-18.98228-90.777-278.29668-305.18529 99.54769z" fill="#f2f2f2" transform="translate(-104.43006 -64.91113)"/><circle cx="896.77566" cy="620.24394" fill="#ff7500" r="32.5874"/><path d="m115.5 152.67774h788v358h-788z" fill="#3f3d56"/><path d="m128.5 165.67774h762v325h-762z" fill="#fff"/><path d="m739 475.17774h74v25h-74z" fill="#3f3d56"/><path d="m681 494.17774h54v7h-54z" fill="#ff7500"/><path d="m190.5 288.678h291l45.116 21.979 71.884 35.021 47-88h133" fill="none" stroke="#3f3d56" stroke-miterlimit="10" stroke-width="2"/><path d="m304.925 288.678 21.575 51h53" fill="none" stroke="#3f3d56" stroke-miterlimit="10" stroke-width="2"/><path d="m385.807 288.678 73.693-40h52" fill="none" stroke="#3f3d56" stroke-miterlimit="10" stroke-width="2"/><circle cx="304.5" cy="288.67774" fill="#ff7500" r="9"/><circle cx="388.5" cy="288.67774" fill="#ff7500" r="9"/><path d="m526.5 310.678 6 89h52" fill="none" stroke="#3f3d56" stroke-miterlimit="10" stroke-width="2"/><path d="m626.65 292.971-57.15-44.293h54" fill="none" stroke="#3f3d56" stroke-miterlimit="10" stroke-width="2"/><path d="m721.051 257.678 55.449 44h52" fill="none" stroke="#3f3d56" stroke-miterlimit="10" stroke-width="2"/><circle cx="526.5" cy="310.67774" fill="#ff7500" r="9"/><circle cx="720.5" cy="257.67774" fill="#ff7500" r="9"/><circle cx="626.5" cy="292.67774" fill="#ff7500" r="9"/><path d="m327.5 347.67774h52" fill="none" stroke="#3f3d56" stroke-miterlimit="10" stroke-width="2"/><circle cx="809.54207" cy="75.52974" fill="none" r="14.75556" stroke="#3f3d56" stroke-miterlimit="10" stroke-width="2"/><ellipse cx="152" cy="742.17774" fill="#f2f2f2" rx="152" ry="28"/><path d="m256.389 493.658-27.117 13.681 1.755 3.495 27.116-13.681z" fill="#ff7500"/><g transform="translate(-104.43006 -64.91113)"><path d="m356.41026 533.12245-1.21823 7.3094s1.82735 50.55672-11.57323 34.71968-4.26382-37.15614-4.26382-37.15614l3.65471-6.09117z" fill="#fbbebe"/><path d="m278.44328 299.22149s-2.43647 25.58291-3.65471 26.80115 18.27352 24.36468 18.27352 24.36468l17.05527-15.837s-1.21823-23.14645 2.43647-28.01939-34.11055-7.30944-34.11055-7.30944z" fill="#fbbebe"/><path d="m278.44328 299.22149s-2.43647 25.58291-3.65471 26.80115 18.27352 24.36468 18.27352 24.36468l17.05527-15.837s-1.21823-23.14645 2.43647-28.01939-34.11055-7.30944-34.11055-7.30944z" opacity=".1"/></g><path d="m128.939 700.894v21.928l-8.528 1.219-12.182-3.655 3.654-23.147z" fill="#3f3d56"/><path d="m222.4045 776.76929s-3.6547-9.74588-9.74587-8.52764-7.30941 8.52764-7.30941 8.52764-4.87293 18.27351-12.18234 24.36468-14.61881 21.92822 0 24.36468 26.80115-3.6547 26.80115-4.87293 3.65471-8.52764 9.74588-9.74588 10.96411-2.43646 10.96411-7.3094-3.65471-9.74587-3.65471-9.74587-1.21823-23.10808-3.6547-20.08168a24.23422 24.23422 0 0 0 -3.6547 7.89933z" fill="#2f2e41" transform="translate(-104.43006 -64.91113)"/><path d="m181.323 689.93-4.873 18.273 12.182 2.437 6.091-6.091 1.218-15.837z" fill="#3f3d56"/><path d="m284.53445 770.67812s4.87293-3.65471 7.3094-3.65471h3.6547s0-8.52764 6.09118-8.52764 4.87293 6.09117 4.87293 6.09117 13.40058 20.71 17.05528 24.36469 23.14645 14.61881 7.30941 19.49175-26.80116 4.87293-34.11056-3.65471c0 0-7.30941-3.6547-12.18234-3.6547s-10.96411-2.43647-10.96411-6.09117 3.6547-10.96411 3.6547-10.96411 2.43647-21.92821 3.6547-19.49175 3.65471 6.09118 3.65471 6.09118z" fill="#2f2e41" transform="translate(-104.43006 -64.91113)"/><path d="m232.15038 474.64721v40.20173s-13.40058 77.967-13.40058 103.5499-20.71 147.40634-10.96411 149.84281 32.89233 6.09117 34.11056 2.43647 9.74587-119.387 10.96411-120.60519 26.80115-97.45873 26.80115-97.45873l4.87294 1.21823 2.43646 109.64108s-12.18234 98.677-6.09117 98.677 31.67409-1.21824 31.67409-8.52764 13.40058-142.5334 13.40058-142.5334 15.837-107.20461 9.74587-118.16872-6.09117-17.05528-6.09117-17.05528z" fill="#2f2e41" transform="translate(-104.43006 -64.91113)"/><circle cx="194.11408" cy="228.8283" fill="#fbbebe" r="24.36468"/><path d="m293.06209 335.76851s-15.22793-12.79146-16.44617-17.66439c0 0-7.91852 7.91852-7.91852 9.13675s-34.11056 4.87294-42.63819 14.61881-15.83705 30.45586-15.83705 30.45586l20.71 38.98349s1.21824 21.92822 1.21824 24.36468-6.09117 41.42-3.65471 42.6382 26.80116 13.40058 47.51114 10.96411 41.42-6.09117 47.51113-6.09117 10.96411 2.43647 10.96411 0-3.6547-7.30941-3.6547-9.74588-1.21824-8.52764-1.21824-12.18234-2.43647-9.74587-2.43647-14.61881 26.80116-70.65758 26.80116-70.65758-1.21824-20.71-20.71-30.45586-21.92821-13.40057-21.92821-13.40057-.37979-7.30941-1.40813-7.30941-4.683 10.96411-14.42892 12.18235z" fill="#d0cde1" transform="translate(-104.43006 -64.91113)"/><path d="m122.847 432.883 8.528 13.4 21.928-4.873-15.837-18.273z" fill="#fbbebe"/><path d="m346.66439 366.22437 7.30941 9.74587s14.61881 70.65758 12.18234 96.2405-4.87294 45.07466-4.87294 45.07466 4.87294 18.27352 1.21823 18.27352-25.58291 1.21823-25.58291-2.43647 2.43648-26.80115 2.43648-26.80115l-6.09119-53.6023-13.40057-18.27351z" fill="#d0cde1" transform="translate(-104.43006 -64.91113)"/><path d="m281.99544 281.91075c1.4935-.633 3.22007-.1195 4.81953-.38952 1.87824-.31708 3.55879-1.70862 5.45549-1.533a10.48375 10.48375 0 0 1 2.5973.84328 3.39062 3.39062 0 0 0 2.66075.09529 1.51214 1.51214 0 0 0 .57862-2.27113 7.52045 7.52045 0 0 0 4.32739-1.86276 3.22984 3.22984 0 0 1 .82584-.61957 2.69555 2.69555 0 0 1 2.12237.33059l2.78767 1.285a3.52582 3.52582 0 0 1 1.593 1.13954c.33158.517.39648 1.21219.86613 1.60806.59923.50509 1.495.25792 2.27711.30743a2.91242 2.91242 0 0 1 2.62978 2.83983c-.01108.81805-.30863 1.82167.33839 2.32234.37528.29039.90808.24392 1.34773.42241 1.13946.4626 1.1439 2.04883.97555 3.267s-.08506 2.82525 1.08613 3.20033c.82465.2641 1.66742-.29891 2.52418-.42448 1.29251-.18944 2.48848.619 3.63908 1.23756s2.67915 1.03581 3.67643.19207c.928-.78513.86846-2.2215.61327-3.41a18.78968 18.78968 0 0 0 -1.78747-4.88693 3.102 3.102 0 0 1 -.51817-1.52085 2.75375 2.75375 0 0 1 1.27792-1.86007c1.40979-1.11453 3.03151-2.23658 3.4879-3.97479.335-1.27571-.04182-2.62112-.01273-3.93975.03541-1.60454.6734-3.20218.3742-4.779-.54233-2.85815-3.72326-4.23367-5.77661-6.29447-2.82154-2.83179-3.7376-7.36107-7.06749-9.57284-2.6639-1.76941-6.14831-1.55819-9.18183-2.57056-3.33241-1.11211-6.01486-3.6671-9.302-4.90659a12.96261 12.96261 0 0 0 -11.01889.96648 11.02841 11.02841 0 0 1 -3.23948 1.65513 11.64687 11.64687 0 0 1 -2.94852-.0342 11.3814 11.3814 0 0 0 -5.6235 1.16027 3.14415 3.14415 0 0 0 -1.57539 1.38165c-.58852 1.30709.26647 3.35047-1.02358 3.97545-.60147.29139-1.31155.01224-1.97973.02691-1.29933.02853-2.29894 1.15915-2.91719 2.30232a11.03264 11.03264 0 0 1 -2.04409 3.28973c-1.58825 1.391-4.47379 1.62087-4.88876 3.69094a20.12443 20.12443 0 0 0 .149 2.62234c-.12 1.8345-2.08321 3.2287-1.98075 5.06426.11819 2.11725 2.80817 3.15168 3.52724 5.14658.54753 1.519-.173 3.1614-.66878 4.698s-.6453 3.50622.63511 4.4899c.50206.38571 1.14756.54384 1.65956.91623 1.32492.96364 1.30819 2.90835 1.16106 4.54a2.13535 2.13535 0 0 0 .48137 1.944 1.79886 1.79886 0 0 0 1.47242.17681 6.00977 6.00977 0 0 0 3.8037-2.86237c.42668-.70547.51243-1.32725 1.28754-1.70157.52595-.254 1.16463-.02729 1.7-.35691 2.54699-1.56796 1.67023-6.04152 4.7962-7.36637z" fill="#2f2e41" transform="translate(-104.43006 -64.91113)"/><path d="m213.87686 368.66083-3.6547 3.65471s-21.92816 65.78464-14.61881 80.40346 21.92822 51.16584 26.80115 49.9476 21.92822-12.18234 21.92822-13.40057-20.71-35.32879-20.71-35.32879-2.43647-7.30941-1.21824-8.52764 1.21824 0 0-2.43647-1.21823 0 1.21824-2.43647 2.43647-2.43647 2.43647-3.6547 7.3094-31.67409 7.3094-31.67409z" fill="#d0cde1" transform="translate(-104.43006 -64.91113)"/><path d="m128.329 446.892 26.802-8.527 3.654 8.527-29.237 6.091z" fill="#2f2e41"/><path d="m128.329 446.892 26.802-8.527 3.654 8.527-29.237 6.091z" opacity=".1"/><path d="m164.876 262.939 20.71 17.055 2.437-3.655z" opacity=".1"/><path d="m206.296 267.812-14.618 8.527 1.218 3.655z" opacity=".1"/></svg>