<?xml version="1.0" encoding="utf-8"?>
<!-- Generator: Adobe Illustrator 23.0.4, SVG Export Plug-In . SVG Version: 6.00 Build 0)  -->
<svg version="1.1" id="Layer_1" xmlns="http://www.w3.org/2000/svg" xmlns:xlink="http://www.w3.org/1999/xlink" x="0px" y="0px"
	 viewBox="0 0 1055.5 773.8" style="enable-background:new 0 0 1055.5 773.8;" xml:space="preserve">
<style type="text/css">
	.st0{opacity:0.1;fill:#FF7500;enable-background:new    ;}
	.st1{opacity:0.1;enable-background:new    ;}
	.st2{fill:#F5F5FB;}
	.st3{fill:#F7F7FD;}
	.st4{opacity:0.1;}
	.st5{fill:#FF7500;}
	.st6{fill:url(#SVGID_1_);}
	.st7{fill:#DB8B8B;}
	.st8{fill:#C17174;}
	.st9{fill:#474463;}
	.st10{fill:#FF748E;}
	.st11{opacity:5.000000e-02;enable-background:new    ;}
	.st12{fill:#464353;}
	.st13{fill:#A8A8A8;}
	.st14{opacity:0.2;enable-background:new    ;}
	.st15{opacity:0.7;fill:#3ACC6C;enable-background:new    ;}
</style>
<title>server status</title>
<path class="st0" d="M344.3,491c34.9-13.7,89.7-16.5,139.6-15.4c156.7,3.4,298.1,36.8,420.4,74.5c44.3,13.7,87.9,28.4,116.6,47.2
	c58.5,38.3,41.2,91.4-40.2,122.9c-27.7,10.7-61.2,19-95.7,26.3c-61.3,13-127.4,23.4-196.9,26.4c-49.6,2.1-99.8,0.4-149.1-2.6
	c-137.7-8.3-272.9-26.4-386.2-57.7c-49.7-13.7-96.5-30.7-117-52.8s-7.4-50.2,43.4-63.2c21-5.4,46.1-7.9,70.7-10.2
	c36.2-3.4,72.9-6.7,105.5-13.6c33.7-7.1,73.6-20.8,66.9-36.5C315.2,519.5,309.4,504.7,344.3,491z"/>
<path class="st1" d="M503.4,30.1l-3.8,221c0,0,137.9,0,255.3,38.1l2.3-223.3C757.1,65.9,568.9,21,503.4,30.1z"/>
<path class="st2" d="M501.4,27.1l-3.8,221c0,0,137.9,0,255.3,38.1l2.3-223.3C755.1,62.9,566.9,18,501.4,27.1z"/>
<path class="st1" d="M444.6,30l3.8,221c0,0-137.9,0-255.3,38.1l-2.3-223.3C190.9,65.8,379.1,20.8,444.6,30z"/>
<path class="st2" d="M446.6,27l3.8,221c0,0-137.9,0-255.3,38.1l-2.3-223.3C192.9,62.8,381.1,17.8,446.6,27z"/>
<path class="st1" d="M790.4,97.4v218.7c0,0,45-5.3,139.4,111.2l8.4-218.7C938.2,208.7,839.9,102.8,790.4,97.4z"/>
<path class="st2" d="M788.4,95.4v218.7c0,0,45-5.3,139.4,111.2l8.4-218.7C936.2,206.7,837.9,100.8,788.4,95.4z"/>
<path class="st1" d="M160.1,103.9v218.7c0,0-45-5.3-139.4,111.2l-8.4-218.7C12.2,215.2,110.5,109.3,160.1,103.9z"/>
<path class="st2" d="M162.1,100.9v218.7c0,0-45-5.3-139.4,111.2l-8.4-218.7C14.2,212.2,112.5,106.3,162.1,100.9z"/>
<path class="st3" d="M668.1,469.7c0,7.5-47.3,50.5-155,50.5s-166-41.5-166-49s60.3,11,168,11S668.1,462.2,668.1,469.7z"/>
<ellipse class="st0" cx="195.2" cy="496.4" rx="34.7" ry="5.1"/>
<ellipse class="st0" cx="292.1" cy="538.9" rx="34.7" ry="5.1"/>
<ellipse class="st0" cx="149.5" cy="587.2" rx="34.7" ry="5.1"/>
<ellipse class="st0" cx="491.1" cy="575.3" rx="23" ry="2.6"/>
<ellipse class="st0" cx="820.1" cy="443.3" rx="23" ry="2.6"/>
<ellipse class="st0" cx="641.1" cy="638.3" rx="23" ry="2.6"/>
<ellipse class="st0" cx="442.6" cy="621.4" rx="23" ry="2.6"/>
<ellipse class="st0" cx="256.7" cy="614.7" rx="23" ry="2.6"/>
<ellipse class="st0" cx="208.2" cy="660.7" rx="23" ry="2.6"/>
<g class="st4">
	<ellipse cx="508.8" cy="239.5" rx="152.1" ry="67.9"/>
	<path d="M663.6,263.8c-6.7,35.4-73.2,63.2-154.3,63.2c-81.8,0-148.7-28.3-154.5-64.1h-0.6v57.7c26.7,27.9,85.9,47.4,154.7,47.4
		s127.9-19.4,154.7-47.4V263.8z"/>
	<path d="M663.6,334c-6.7,35.4-73.2,63.2-154.3,63.2c-81.8,0-148.7-28.3-154.5-64.1h-0.6v57.7c26.7,27.9,85.9,47.4,154.7,47.4
		s127.9-19.4,154.7-47.4V334z"/>
	<path d="M663.6,411.2c-6.7,35.4-73.2,63.2-154.3,63.2c-81.8,0-148.7-28.3-154.5-64.1h-0.6v62.2c0,2.7,1.1,5.2,3.1,7.1
		c28,25.7,85.4,35.8,151.6,35.8s123.5-10.1,151.6-35.8c2-1.8,3.1-4.4,3.1-7.1V411.2z"/>
</g>
<ellipse class="st5" cx="508.8" cy="235.5" rx="152.1" ry="67.9"/>
<path class="st5" d="M663.6,259.8c-6.7,35.4-73.2,63.2-154.3,63.2c-81.8,0-148.7-28.3-154.5-64.1h-0.6v57.7
	c26.7,27.9,85.9,47.4,154.7,47.4s127.9-19.4,154.7-47.4V259.8z"/>
<path class="st5" d="M663.6,330c-6.7,35.4-73.2,63.2-154.3,63.2c-81.8,0-148.7-28.3-154.5-64.1h-0.6v57.7
	c26.7,27.9,85.9,47.4,154.7,47.4s127.9-19.4,154.7-47.4V330z"/>
<path class="st5" d="M663.6,407.2c-6.7,35.4-73.2,63.2-154.3,63.2c-81.8,0-148.7-28.3-154.5-64.1h-0.6v62.2c0,2.7,1.1,5.2,3.1,7.1
	c28,25.7,85.4,35.8,151.6,35.8s123.5-10.1,151.6-35.8c2-1.8,3.1-4.4,3.1-7.1V407.2z"/>
<ellipse class="st0" cx="733" cy="571.2" rx="57" ry="10.3"/>
<linearGradient id="SVGID_1_" gradientUnits="userSpaceOnUse" x1="1990.6008" y1="137.6734" x2="1990.6008" y2="420.2652" gradientTransform="matrix(-1 0 0 -1 2725.76 712.91)">
	<stop  offset="0" style="stop-color:#808080;stop-opacity:0.25"/>
	<stop  offset="0.54" style="stop-color:#808080;stop-opacity:0.12"/>
	<stop  offset="1" style="stop-color:#808080;stop-opacity:0.1"/>
</linearGradient>
<path class="st6" d="M701,440.5c2.9,1.7,7.4,2.8,13.1-0.9l0,8.1c0.4,5.6,7.3,25.8,7.3,25.8l4.8,16.7c3.5,11.8,5.3,24,5.3,36.3
	c0,4.1,0.4,8.3,1.5,11.4c2.6,7-1,16-2.6,19.3c-2.6,0.9-5.3,1.6-8,2.2c-0.2,0.1-0.5,0.1-0.7,0.2v0c0,0-7.3,2.9-10.5,2.5
	c-2.4-0.3-3.9,2.7-2,4.9c-1.6,0.5-3.2,0.7-4.8,0.6c-3.2-0.4-4.9,5.2,1.2,6.8s40.5,0,40.5,0c2-1,3-3.2,2.6-5.4l4.3-0.2
	c0,0,6.1-2.8,0-10.3l-0.3,0.2l-1.3-3.8v-5.1c0,0,7.7-37,5.3-41.3c-2.4-4.3-3.7-26.7-3.7-26.7l0.8-24.2c2.2-4.5,3.3-11.6,3.9-17.2
	c0.8-2.6,1.3-5.4,1.5-8.1c0.1-1.3,0.2-2.7,0.2-4.1c0-3.1-0.5-6.2-1.5-9.2c2.7-4.1,5.8-7.9,9.2-11.5c2.8-2.6,4.2-6.5,3.7-10.3
	l-2-13.5l-4.9-23c0.6-6.4-0.7-10.1-2.2-12.1c0.3-2.1,0.7-4.1,0.9-6.2c1.1-9,0.6-18.1-1.4-27c-0.7-3.1-1.7-6.2-3.8-8.6
	c-2.5-2.7-6.4-4.3-7.3-7.7c-0.1-0.9-0.3-1.8-0.6-2.6c-0.9-2.3-3.7-3.1-6.2-3.4c-4.4-0.5-10.7-0.9-14.9,0.8c-3.7,1.6-6.7,4.5-8.6,8
	c-0.9,1.5-1.3,3.2-1,5c0.1,0.6,0.4,1.2,0.7,1.7c-2.9,7.9,1.1,16.7,8.9,19.7c0.1,0.3,0.2,0.6,0.3,0.9c0.2,0.7,0.3,1.4,0.4,2.2
	c-0.1,1.4-0.2,2.8-0.2,4.2l-0.2,0.6c-3.5,1.5-6.9,3.3-10.2,5.2c2.4,3.6-0.4,18.7-0.4,18.7c-6.1,3.6-12.1,12.7-5.7,22.2
	s2.8,19.9,2.8,19.9l-1,15.5l0,0l0,0l-0.2,3.1h0.1l-0.1,1.2h0.2v1.3c-2.8,1-7,3.1-9.5,7c-1.2,1.9-2.6,3.7-4.2,5.2
	c-1.3,1.1-1.5,3.1-0.3,4.4C700.4,440.1,700.7,440.3,701,440.5z M749.9,399.2c-0.2-2.7,0.3-5.4,1.4-7.8h2.9c0.1,0.6,0.2,1.3,0.3,1.9
	C755.4,396.9,752.1,398.5,749.9,399.2z"/>
<path class="st7" d="M750.7,553.2l1.6,4.7l-5.1,5.1l-16.7,3.9l-12.1-1.2l0.8-4.3l0,0c0.5-1.9,1.9-3.3,3.8-3.8
	c5-1.2,14.4-3.8,16.4-7.5L750.7,553.2z"/>
<path class="st1" d="M750.7,553.2l1.6,4.7l-5.1,5.1l-16.7,3.9l-12.1-1.2l0.8-4.3l0,0c0.5-1.9,1.9-3.3,3.8-3.8
	c5-1.2,14.4-3.8,16.4-7.5L750.7,553.2z"/>
<path class="st8" d="M722.3,564.5l2.3-3.1l-2.3-3.6c0,0-7,2.8-10.1,2.4s-4.7,5.1,1.2,6.6s38.9,0,38.9,0s5.8-2.7,0-10.1l-5.1,3.9
	c0,0-8.6,4.7-12.8,3.9L722.3,564.5z"/>
<path class="st7" d="M711.8,571.1l12.1,1.2l16.7-3.9l5.1-5.1l-0.4-1.2l-0.6-1.7l-0.6-1.7l-11.3-3.1c-0.6,0.9-1.4,1.7-2.3,2.3
	c-3.7,2.5-10.2,4.3-14.1,5.2c-0.2,0-0.3,0.1-0.5,0.2c-0.8,0.2-1.4,0.7-2,1.2c-0.7,0.7-1.2,1.5-1.4,2.4L711.8,571.1z"/>
<path class="st1" d="M711.8,571.1l12.1,1.2l16.7-3.9l5.1-5.1l-0.4-1.2l-4.7,3.6c0,0-8.6,4.7-12.8,3.9h-12.1l2.3-3.1l-2.1-3.2
	c-0.8,0.2-1.4,0.7-2,1.2c-0.7,0.7-1.2,1.5-1.4,2.4L711.8,571.1z"/>
<path class="st8" d="M715.6,570l2.3-3.1l-2.3-3.6c0,0-7,2.8-10.1,2.4s-4.7,5.1,1.2,6.6s38.9,0,38.9,0s5.8-2.7,0-10.1l-5.1,3.9
	c0,0-8.6,4.7-12.8,3.9L715.6,570z"/>
<path class="st7" d="M725.4,344.2c0,0,18.7,2,16-5.8c-0.8-2.2-1-4.6-0.6-6.9c0.5-2.9,1.6-5.6,3.3-7.9l-17.5,2.7
	c1.1,1.8,1.9,3.7,2.4,5.6C731,340.2,725.4,344.2,725.4,344.2z"/>
<path class="st9" d="M757.3,432.9c0,0-0.4,16.7-4.3,24.9l-0.8,23.8c0,0,1.2,21.8,3.5,26.1s-5.1,40.5-5.1,40.5v6.2
	c0,0-12.5,4.7-16-0.8l3.5-46.3l-1.6-64.2L757.3,432.9z"/>
<path class="st1" d="M757.3,432.9c0,0-0.4,16.7-4.3,24.9l-0.8,23.8c0,0,1.2,21.8,3.5,26.1s-5.1,40.5-5.1,40.5v6.2
	c0,0-12.5,4.7-16-0.8l3.5-46.3l-1.6-64.2L757.3,432.9z"/>
<path class="st10" d="M765.1,379.2l2.3,6.2l2,13.2c0.5,3.7-0.8,7.5-3.5,10.1c-4.7,4.7-10.9,14.4-10.9,14.4l-7.4-22.2
	c0,0,7.4-1.2,6.2-6.2s-0.8-14.4-0.8-14.4L765.1,379.2z"/>
<path class="st11" d="M765.2,379.1l2.3,6.2l2,13.2c0.5,3.7-0.8,7.5-3.5,10.1c-4.7,4.7-10.9,14.4-10.9,14.4l-7.4-22.2
	c0,0,7.4-1.2,6.2-6.2s-0.8-14.4-0.8-14.4L765.2,379.1z"/>
<path class="st1" d="M730.5,557.9c5,7.9,12.8,3.4,14.2,2.5l-0.6-1.7l-11.3-3.2C732.2,556.5,731.4,557.3,730.5,557.9z"/>
<path class="st9" d="M714.9,448.1c0.4,5.4,7,25.3,7,25.3l4.7,16.3c3.3,11.6,5.1,23.5,5.1,35.5c-0.1,3.8,0.4,7.6,1.5,11.2
	c3.1,8.6-3.1,20.2-3.1,20.2c5.5,9.7,14.8,3.1,14.8,3.1v-6.2c0,0,7.4-33.9,5.5-40.5c-2-6.6-2.7-24.5-2.7-24.5v-32.3
	c6.2-6.2,10-14.5,10.7-23.2c0.1-1.3,0.2-2.6,0.2-4c0.3-8.8-5.7-19.1-8-22.8c-0.6-0.9-0.9-1.4-0.9-1.4l-34.4,13.6h-0.1v1.3v2.9
	L714.9,448.1z"/>
<path class="st1" d="M726.5,326.3c1.1,1.8,1.9,3.7,2.4,5.6c3.8,1.5,8.1,1.3,11.8-0.4c0.5-2.9,1.6-5.6,3.3-7.9L726.5,326.3z"/>
<circle class="st7" cx="734.3" cy="316.9" r="15.2"/>
<path class="st1" d="M714.9,422.8h0.2c16.3,3.4,36.8-13.6,36.8-13.6c-0.5-0.9-1-1.9-1.4-2.9c-0.6-0.9-0.9-1.4-0.9-1.4l-34.4,13.6
	l-0.1,1.4L714.9,422.8z"/>
<path class="st10" d="M719.2,343.8c0,0,21.8-13.2,28.8-7.8l9.7,12.5c0,0,6.2,2,5.1,14.5l4.7,22.6l-14,3.5c0,0-8.2,7.8-1.5,19.1
	c0,0-20.6,17.1-37,13.6l1.2-18.3c0,0,3.5-10.1-2.7-19.5s-0.4-18.3,5.5-21.8C718.8,362.1,721.5,347.3,719.2,343.8z"/>
<path class="st7" d="M718,423.2c0,0-8.2,1.6-12.1,7.8c-1.1,1.9-2.5,3.6-4.1,5.1c-1.3,1.1-1.3,3.1-0.2,4.4c0.2,0.2,0.4,0.4,0.7,0.6
	c3.1,1.9,8.1,3,14.5-2.2C727.8,429.8,718,423.2,718,423.2z"/>
<path class="st1" d="M730,351.2c0,0,7.8-0.8,9.7,19.5s5.1,24.9,5.1,24.9s2,10.5-2.7,16.7s-13.6,19.5-13.6,19.5s-9.7,2.7-11.7-7
	l12.1-22.6c0,0,1.9-7.8-2.7-13.2S718,347.3,730,351.2z"/>
<path class="st10" d="M729.3,350c0,0,7.8-0.8,9.7,19.5s5.1,24.9,5.1,24.9s2,10.5-2.7,16.7s-13.6,19.5-13.6,19.5s-9.7,2.7-11.7-7
	l12.1-22.6c0,0,2-7.8-2.7-13.2S717.2,346.1,729.3,350z"/>
<path class="st1" d="M722.8,364.6c0,0-0.8,12.1,2.7,18.7s3.5,15.2,0,19.9"/>
<path class="st1" d="M720.9,349.8c0,0,3.1-3.1,12.1-3.5s12.8-3.1,12.8-3.1"/>
<path class="st1" d="M742.5,297.3c2.4,0.3,5.1,1.1,5.9,3.3c0.2,0.8,0.4,1.7,0.5,2.6c0.9,3.4,4.7,5,7.1,7.6c2.1,2.3,3,5.4,3.7,8.4
	c1.9,8.7,2.4,17.6,1.4,26.5c-0.8,6.5-2.3,12.8-2.8,19.3s0.4,13.3,3.9,18.8c1.5,2.3,3.5,4.4,4.6,7c-2.2,1.8-5.3,2.1-8.2,2.2
	c-3.3,0.1-6.7,0.1-10,0c-1.8,0.1-3.5-0.3-5.1-1.1c-1.1-0.7-2-1.7-2.7-2.9c-1.9-3.2-2.4-7.2-2.3-10.9s0.7-7.5,0.8-11.3
	c0.2-2.1-0.3-4.1-1.3-5.9c-1-1.1-2.1-2.1-3.3-3c-4.2-3.7-5.6-9.6-5.7-15.2s0.8-11.1,0.3-16.7c-0.2-2.2-1-4.8-3.1-5.2
	c-0.7,0-1.3-0.1-2-0.3c-1.7-0.7-1.5-3.1-2-4.8c-0.5-2-2.2-3.5-2.7-5.5c-1.1-4.7,4.9-10.3,8.8-12S738.3,296.8,742.5,297.3z"/>
<path class="st12" d="M742.9,296.5c2.4,0.3,5.1,1.1,5.9,3.3c0.2,0.8,0.4,1.7,0.5,2.6c0.9,3.4,4.7,5,7.1,7.6c2.1,2.3,3,5.4,3.7,8.4
	c1.9,8.7,2.4,17.6,1.4,26.5c-0.8,6.5-2.3,12.8-2.7,19.3s0.4,13.3,3.9,18.8c1.5,2.4,3.5,4.4,4.6,7c-2.2,1.8-5.3,2.1-8.2,2.2
	c-3.3,0.1-6.7,0.1-10,0c-1.8,0.1-3.5-0.3-5.1-1.1c-1.1-0.7-2-1.7-2.7-2.9c-1.9-3.2-2.4-7.2-2.3-10.9s0.7-7.5,0.8-11.3
	c0-2.1-0.1-4.2-1.3-5.9c-1-1.1-2.1-2.1-3.3-3c-4.2-3.7-5.6-9.6-5.7-15.2s0.8-11.1,0.3-16.7c-0.2-2.2-1-4.8-3.1-5.2
	c-0.7,0-1.3-0.1-2-0.3c-1.7-0.7-1.5-3.1-2-4.8c-0.5-2-2.2-3.5-2.7-5.5c-1.1-4.7,4.9-10.3,8.8-12S738.8,296,742.9,296.5z"/>
<path class="st13" d="M128,572.8c0,0,10.7-0.3,13.9-2.6s16.5-5,17.3-1.4c0.8,3.7,16.1,18.3,4,18.4s-28.1-1.9-31.3-3.8
	C128.7,581.4,128,572.8,128,572.8z"/>
<path class="st14" d="M163.5,585.9c-12.1,0.1-28.1-1.9-31.3-3.8c-2.5-1.5-3.4-6.9-3.8-9.3H128c0,0,0.7,8.6,3.9,10.6
	s19.2,3.9,31.3,3.8c3.5,0,4.7-1.3,4.6-3.1C167.4,585.2,166.1,585.9,163.5,585.9z"/>
<path class="st13" d="M808.9,432.1c0,0,7.3-0.2,9.6-1.8s11.3-3.5,11.9-0.9s11.1,12.6,2.8,12.7s-19.3-1.3-21.5-2.6
	S808.9,432.1,808.9,432.1z"/>
<path class="st14" d="M833.3,441.2c-8.3,0.1-19.3-1.3-21.5-2.6c-1.7-1-2.4-4.7-2.6-6.4h-0.2c0,0,0.5,5.9,2.7,7.3s13.2,2.7,21.5,2.6
	c2.4,0,3.2-0.9,3.2-2.1C836,440.7,835,441.1,833.3,441.2z"/>
<circle class="st0" cx="31.3" cy="21.6" r="21.6"/>
<circle class="st0" cx="961.3" cy="83.6" r="21.6"/>
<circle class="st0" cx="16" cy="106.2" r="16"/>
<circle class="st0" cx="178" cy="16.2" r="16"/>
<circle class="st0" cx="834" cy="18.2" r="16"/>
<path class="st15" d="M316.5,126c-11.6,0-21,9.4-21,21s9.4,21,21,21s21-9.4,21-21S328,126,316.5,126z M316.5,130c9.4,0,17,7.6,17,17
	s-7.6,17-17,17s-17-7.6-17-17S307.1,130,316.5,130 M328.3,141.1l-1.9-1.9c-0.4-0.4-1-0.4-1.4,0c0,0,0,0,0,0l-12,11.9l-5.1-5.1
	c-0.4-0.4-1-0.4-1.4,0c0,0,0,0,0,0l-1.9,1.9c-0.4,0.4-0.4,1,0,1.4c0,0,0,0,0,0l7.7,7.8c0.4,0.4,1,0.4,1.4,0c0,0,0,0,0,0l14.6-14.5
	C328.7,142.1,328.7,141.5,328.3,141.1C328.4,141.1,328.3,141.1,328.3,141.1L328.3,141.1z"/>
<path class="st15" d="M84,232.3c-11.3,2.6-18.3,13.9-15.7,25.2c2.6,11.3,13.9,18.3,25.2,15.7c11.3-2.6,18.3-13.9,15.7-25.2
	C106.6,236.7,95.3,229.7,84,232.3C84,232.3,84,232.3,84,232.3z M84.9,236.3c9.1-2.1,18.3,3.5,20.4,12.7c2.1,9.1-3.5,18.3-12.7,20.4
	c-9.1,2.1-18.3-3.5-20.4-12.7c0,0,0-0.1,0-0.1C70.1,247.5,75.8,238.4,84.9,236.3 M99,244.4l-2.3-1.5c-0.5-0.3-1.1-0.2-1.4,0.3
	c0,0,0,0,0,0l-9,14.3l-6.1-3.9c-0.5-0.3-1.1-0.2-1.4,0.3c0,0,0,0,0,0l-1.4,2.3c-0.3,0.5-0.2,1.1,0.3,1.4c0,0,0,0,0,0l9.2,5.8
	c0.5,0.3,1.1,0.2,1.4-0.3c0,0,0,0,0,0l11-17.4C99.6,245.3,99.5,244.7,99,244.4C99,244.4,99,244.4,99,244.4L99,244.4z"/>
<path class="st15" d="M622.5,129c-11.6,0-21,9.4-21,21s9.4,21,21,21s21-9.4,21-21l0,0C643.5,138.4,634.1,129,622.5,129z
	 M622.5,133.1c9.4,0,17,7.6,17,17s-7.6,17-17,17s-17-7.6-17-17S613.1,133.1,622.5,133.1 M634.4,144.1l-1.9-1.9c-0.4-0.4-1-0.4-1.4,0
	c0,0,0,0,0,0l-12,11.9L614,149c-0.4-0.4-1-0.4-1.4,0c0,0,0,0,0,0l-1.9,1.9c-0.4,0.4-0.4,1,0,1.4c0,0,0,0,0,0l7.7,7.8
	c0.4,0.4,1,0.4,1.4,0c0,0,0,0,0,0l14.6-14.5C634.8,145.2,634.8,144.6,634.4,144.1C634.4,144.2,634.4,144.2,634.4,144.1L634.4,144.1z
	"/>
<path class="st15" d="M863.5,232.7c-11.6-0.9-21.7,7.7-22.6,19.3s7.7,21.7,19.3,22.6c11.6,0.9,21.6-7.7,22.6-19.3
	C883.7,243.7,875,233.6,863.5,232.7C863.5,232.7,863.5,232.7,863.5,232.7z M863.1,236.8c9.4,0.7,16.4,8.9,15.7,18.2
	c-0.7,9.4-8.9,16.4-18.2,15.7s-16.4-8.9-15.7-18.2c0,0,0-0.1,0-0.1C845.6,243,853.8,236.1,863.1,236.8
	C863.1,236.8,863.1,236.8,863.1,236.8 M874.1,248.7l-1.8-2.1c-0.4-0.4-1-0.5-1.4-0.1c0,0,0,0,0,0l-12.9,10.9l-4.7-5.5
	c-0.3-0.4-1-0.5-1.4-0.1c0,0,0,0,0,0l-2.1,1.8c-0.4,0.4-0.5,1-0.1,1.4c0,0,0,0,0,0l7.1,8.3c0.4,0.4,1,0.5,1.4,0.1c0,0,0,0,0,0
	l15.7-13.3C874.4,249.8,874.5,249.2,874.1,248.7C874.1,248.7,874.1,248.7,874.1,248.7z"/>
</svg>
